<svg aria-hidden="true" style="position: absolute; width: 0; height: 0; overflow: hidden;" version="1.1" xmlns="http://www.w3.org/2000/svg" xmlns:xlink="http://www.w3.org/1999/xlink">
<defs>
<symbol id="icon-magnifying-glass" viewBox="0 0 20 20">
<path d="M17.545 15.467l-3.779-3.779c0.57-0.935 0.898-2.035 0.898-3.21 0-3.417-2.961-6.377-6.378-6.377s-6.186 2.769-6.186 6.186c0 3.416 2.961 6.377 6.377 6.377 1.137 0 2.2-0.309 3.115-0.844l3.799 3.801c0.372 0.371 0.975 0.371 1.346 0l0.943-0.943c0.371-0.371 0.236-0.84-0.135-1.211zM4.004 8.287c0-2.366 1.917-4.283 4.282-4.283s4.474 2.107 4.474 4.474c0 2.365-1.918 4.283-4.283 4.283s-4.473-2.109-4.473-4.474z"></path>
</symbol>
<symbol id="icon-bookmark" viewBox="0 0 20 20">
<path d="M14 2v17l-4-4-4 4v-17c0-0.553 0.585-1.020 1-1h6c0.689-0.020 1 0.447 1 1z"></path>
</symbol>
<symbol id="icon-logo" viewBox="0 0 121 32">
<path fill="#fff" style="fill: var(--color1, #fff)" d="M66.236 14.249c0 3.633-3.358 4.775-5.731 4.775-4.548 0-6.268-2.649-6.564-5.181h3.653c0.337 1.232 0.998 1.809 2.883 1.809 1.465 0 2.126-0.468 2.126-1.252s-0.888-0.936-3.378-1.466-4.871-1.404-4.871-4.479c0-3.268 2.903-4.816 5.731-4.816 4.204 0 5.793 2.36 6.048 4.926h-3.647c-0.213-0.867-0.688-1.548-2.401-1.548s-2.105 0.688-2.105 1.293 0.688 0.784 2.147 1.108c4.135 0.86 6.11 1.796 6.11 4.83z"></path>
<path fill="#fff" style="fill: var(--color1, #fff)" d="M83.251 3.887v14.861h-3.612v-9.804l-3.715 5.669h-0.344l-3.743-5.669v9.804h-3.605v-14.861h4.128l3.399 5.098 3.364-5.098z"></path>
<path fill="#fff" style="fill: var(--color1, #fff)" d="M95.023 15.673h-5.58l-1.060 3.075h-3.825l5.394-14.861h4.548l5.387 14.861h-3.819zM93.833 12.233l-1.596-4.63-1.589 4.63z"></path>
<path fill="#fff" style="fill: var(--color1, #fff)" d="M101.257 3.887h3.612v14.861h-3.612z"></path>
<path fill="#fff" style="fill: var(--color1, #fff)" d="M120.494 3.887v14.861h-4.128l-5.58-9.357 0.296 3.137v6.192h-3.612v-14.834h4.128l5.566 9.364-0.282-3.137v-6.192z"></path>
<path fill="#fff" style="fill: var(--color1, #fff)" d="M35.481 14.448c-0.799 0.797-1.902 1.29-3.12 1.29-2.439 0-4.417-1.978-4.417-4.417s1.978-4.417 4.417-4.417c1.218 0 2.321 0.493 3.12 1.29l-0-0 2.36-2.339c-1.395-1.392-3.321-2.253-5.448-2.253-4.26 0-7.713 3.453-7.713 7.713s3.453 7.713 7.713 7.713c2.127 0 4.053-0.861 5.448-2.253l-0 0z"></path>
<path fill="#fff" style="fill: var(--color1, #fff)" d="M45.093 3.598c-4.26 0-7.713 3.453-7.713 7.713s3.453 7.713 7.713 7.713c4.26 0 7.713-3.453 7.713-7.713v0c0-4.26-3.453-7.713-7.713-7.713v0zM45.093 15.735c-2.434-0.012-4.403-1.988-4.403-4.424 0-2.443 1.981-4.424 4.424-4.424s4.424 1.981 4.424 4.424v0c0 0 0 0 0 0 0 2.443-1.981 4.424-4.424 4.424-0.007 0-0.014-0-0.022-0h0.001z"></path>
<path fill="#fff" style="fill: var(--color1, #fff)" d="M14.111 14.111c-0.97 0.969-2.309 1.568-3.789 1.568-2.96 0-5.36-2.4-5.36-5.36s2.4-5.36 5.36-5.36c0.018 0 0.037 0 0.055 0l-0.003-0v-4.961c-0.016-0-0.036-0-0.055-0-5.7 0-10.32 4.621-10.32 10.32s4.621 10.32 10.32 10.32c5.7 0 10.32-4.62 10.32-10.32v0h-4.961c-0.001 1.48-0.6 2.82-1.569 3.791l0-0z"></path>
<path fill="#fff" style="fill: var(--color1, #fff)" d="M17.985 4.692c0 1.14-0.924 2.064-2.064 2.064s-2.064-0.924-2.064-2.064c0-1.14 0.924-2.064 2.064-2.064s2.064 0.924 2.064 2.064z"></path>
<path fill="#fff" style="fill: var(--color1, #fff)" d="M24.645 30.555v-6.192h2.147c0.020-0 0.044-0.001 0.068-0.001 0.347 0 0.684 0.043 1.006 0.124l-0.028-0.006c0.263 0.070 0.493 0.183 0.693 0.334l-0.005-0.004c0.178 0.136 0.319 0.311 0.409 0.515l0.003 0.008c0.078 0.196 0.124 0.424 0.124 0.662 0 0.009-0 0.018-0 0.027v-0.001c0 0.003 0 0.007 0 0.011 0 0.146-0.023 0.286-0.065 0.418l0.003-0.010c-0.046 0.145-0.114 0.271-0.201 0.381l0.002-0.002c-0.098 0.122-0.212 0.227-0.339 0.313l-0.005 0.003c-0.142 0.093-0.306 0.174-0.479 0.236l-0.017 0.005q1.28 0.289 1.28 1.376c0 0.008 0 0.017 0 0.026 0 0.257-0.056 0.502-0.156 0.721l0.004-0.011c-0.106 0.23-0.255 0.423-0.438 0.576l-0.003 0.002c-0.195 0.162-0.424 0.291-0.673 0.374l-0.015 0.004c-0.268 0.088-0.577 0.138-0.898 0.138-0.023 0-0.046-0-0.068-0.001l0.003 0zM25.808 27.026h0.922c0.032 0.002 0.070 0.004 0.108 0.004 0.29 0 0.562-0.081 0.794-0.221l-0.007 0.004c0.19-0.143 0.312-0.369 0.312-0.623 0-0.023-0.001-0.046-0.003-0.068l0 0.003c0.002-0.023 0.004-0.049 0.004-0.076 0-0.244-0.108-0.463-0.278-0.611l-0.001-0.001c-0.213-0.137-0.474-0.218-0.753-0.218-0.040 0-0.080 0.002-0.119 0.005l0.005-0h-0.984zM25.808 27.824v1.83h1.17c0.017 0.001 0.038 0.001 0.059 0.001 0.173 0 0.34-0.026 0.497-0.073l-0.012 0.003c0.135-0.049 0.252-0.119 0.352-0.207l-0.001 0.001c0.078-0.085 0.141-0.186 0.184-0.296l0.002-0.006c0.039-0.108 0.062-0.234 0.062-0.364 0-0 0-0 0-0.001v0c0-0.008 0-0.017 0-0.027 0-0.122-0.025-0.238-0.071-0.344l0.002 0.006c-0.044-0.11-0.113-0.202-0.198-0.274l-0.001-0.001c-0.101-0.079-0.221-0.141-0.351-0.177l-0.007-0.002c-0.143-0.040-0.308-0.062-0.477-0.062-0.014 0-0.027 0-0.041 0l0.002-0z"></path>
<path fill="#fff" style="fill: var(--color1, #fff)" d="M32.021 26.069c0.005-0 0.011-0 0.017-0 0.271 0 0.53 0.050 0.768 0.143l-0.015-0.005c0.237 0.086 0.44 0.217 0.605 0.385l0 0c0.17 0.175 0.304 0.386 0.388 0.621l0.004 0.012c0.092 0.24 0.145 0.517 0.145 0.807 0 0.014-0 0.028-0 0.042l0-0.002c0.004 0.030 0.006 0.065 0.006 0.1s-0.002 0.070-0.007 0.104l0-0.004c0.005 0.019 0.007 0.040 0.007 0.062s-0.003 0.043-0.008 0.064l0-0.002c-0.018 0.030-0.044 0.053-0.075 0.068l-0.001 0c-0.019 0.004-0.040 0.006-0.062 0.006s-0.043-0.002-0.064-0.006l0.002 0h-2.773c-0 0.006-0 0.013-0 0.020 0 0.375 0.138 0.717 0.366 0.98l-0.002-0.002c0.205 0.197 0.484 0.318 0.791 0.318 0.020 0 0.039-0 0.058-0.001l-0.003 0c0.009 0 0.020 0 0.031 0 0.146 0 0.287-0.023 0.419-0.065l-0.010 0.003c0.131-0.042 0.24-0.086 0.345-0.137l-0.015 0.007 0.248-0.131c0.056-0.037 0.125-0.060 0.199-0.062l0.001-0c0.016-0.005 0.035-0.008 0.055-0.008s0.039 0.003 0.056 0.009l-0.001-0c0.034 0.015 0.062 0.039 0.082 0.068l0 0.001 0.31 0.385c-0.112 0.136-0.241 0.252-0.386 0.347l-0.007 0.004c-0.132 0.083-0.284 0.158-0.444 0.215l-0.016 0.005c-0.138 0.053-0.3 0.096-0.468 0.122l-0.014 0.002c-0.072 0.005-0.156 0.007-0.241 0.007s-0.169-0.003-0.252-0.008l0.011 0.001c-0.003 0-0.007 0-0.010 0-0.306 0-0.598-0.058-0.866-0.164l0.016 0.006c-0.27-0.1-0.5-0.253-0.688-0.447l-0-0c-0.198-0.207-0.354-0.454-0.456-0.728l-0.005-0.015c-0.105-0.288-0.166-0.621-0.166-0.968 0-0.020 0-0.040 0.001-0.060l-0 0.003c-0-0.005-0-0.010-0-0.016 0-0.298 0.053-0.583 0.15-0.847l-0.005 0.017c0.097-0.267 0.24-0.496 0.421-0.689l-0.001 0.001c0.191-0.196 0.419-0.354 0.674-0.463l0.014-0.005c0.199-0.067 0.428-0.106 0.666-0.106 0.071 0 0.14 0.003 0.209 0.010l-0.009-0.001zM32.021 26.833c-0.007-0-0.015-0-0.023-0-0.257 0-0.492 0.1-0.666 0.262l0.001-0.001c-0.196 0.194-0.331 0.45-0.371 0.736l-0.001 0.007h1.995c0-0.137-0.020-0.27-0.058-0.395l0.002 0.010c-0.036-0.125-0.095-0.233-0.173-0.325l0.001 0.001c-0.081-0.092-0.179-0.166-0.29-0.218l-0.005-0.002c-0.116-0.047-0.251-0.075-0.392-0.076h-0z"></path>
<path fill="#fff" style="fill: var(--color1, #fff)" d="M38.261 30.555h-0.475c-0.008 0-0.018 0.001-0.027 0.001-0.077 0-0.15-0.015-0.217-0.043l0.004 0.001c-0.062-0.046-0.107-0.109-0.13-0.183l-0.001-0.003-0.089-0.317q-0.179 0.158-0.33 0.268c-0.097 0.067-0.207 0.131-0.323 0.187l-0.014 0.006c-0.103 0.045-0.225 0.086-0.351 0.114l-0.014 0.003c-0.065 0.005-0.14 0.009-0.217 0.009s-0.152-0.003-0.227-0.009l0.010 0.001c-0.010 0-0.022 0-0.035 0-0.172 0-0.338-0.028-0.492-0.079l0.011 0.003c-0.157-0.048-0.293-0.126-0.407-0.228l0.001 0.001c-0.111-0.101-0.2-0.225-0.259-0.365l-0.003-0.007c-0.061-0.15-0.096-0.324-0.096-0.506 0-0.006 0-0.012 0-0.018v0.001c0-0.001 0-0.002 0-0.003 0-0.181 0.049-0.351 0.133-0.497l-0.003 0.005c0.108-0.183 0.257-0.332 0.435-0.437l0.006-0.003c0.234-0.143 0.505-0.257 0.792-0.326l0.019-0.004c0.354-0.083 0.761-0.131 1.179-0.131 0.028 0 0.056 0 0.084 0.001l-0.004-0v-0.255c0.003-0.030 0.005-0.064 0.005-0.099 0-0.221-0.072-0.426-0.193-0.592l0.002 0.003c-0.126-0.132-0.303-0.215-0.499-0.215-0.016 0-0.031 0.001-0.046 0.002l0.002-0c-0.010-0-0.022-0-0.033-0-0.143 0-0.28 0.023-0.409 0.065l0.009-0.003c-0.113 0.039-0.211 0.085-0.302 0.141l0.006-0.004-0.234 0.131c-0.068 0.039-0.149 0.062-0.236 0.062-0.002 0-0.003 0-0.005-0h0c-0.004 0-0.009 0-0.013 0-0.065 0-0.124-0.021-0.173-0.056l0.001 0.001c-0.050-0.038-0.091-0.083-0.123-0.135l-0.001-0.002-0.193-0.337c0.465-0.427 1.087-0.689 1.771-0.689 0.023 0 0.046 0 0.069 0.001l-0.003-0c0.009-0 0.020-0 0.031-0 0.237 0 0.463 0.048 0.668 0.135l-0.011-0.004c0.201 0.081 0.371 0.2 0.508 0.35l0.001 0.001c0.141 0.151 0.252 0.332 0.32 0.533l0.003 0.010c0.070 0.194 0.11 0.418 0.11 0.651 0 0.013-0 0.026-0 0.039l0-0.002zM36.197 29.867c0.044 0.004 0.096 0.006 0.148 0.006s0.104-0.002 0.155-0.006l-0.007 0c0.1-0.024 0.188-0.055 0.27-0.093l-0.009 0.004c0.092-0.045 0.171-0.095 0.243-0.153l-0.003 0.002c0.084-0.063 0.159-0.131 0.226-0.205l0.001-0.001v-0.736c-0.020-0-0.043-0.001-0.066-0.001-0.251 0-0.497 0.023-0.736 0.066l0.025-0.004c-0.187 0.028-0.357 0.078-0.514 0.149l0.012-0.005c-0.108 0.049-0.199 0.122-0.267 0.212l-0.001 0.002c-0.053 0.082-0.084 0.183-0.084 0.29 0 0.157 0.067 0.298 0.173 0.398l0 0c0.104 0.067 0.231 0.106 0.367 0.106 0.023 0 0.046-0.001 0.069-0.003l-0.003 0z"></path>
<path fill="#fff" style="fill: var(--color1, #fff)" d="M40.277 26.145v2.807c-0.001 0.016-0.002 0.034-0.002 0.053 0 0.217 0.073 0.416 0.196 0.575l-0.002-0.002c0.126 0.137 0.306 0.222 0.506 0.222 0.018 0 0.036-0.001 0.053-0.002l-0.002 0c0.007 0 0.015 0 0.023 0 0.18 0 0.349-0.043 0.499-0.12l-0.006 0.003c0.177-0.094 0.328-0.206 0.461-0.337l-0 0v-3.199h1.060v4.417h-0.647c-0.005 0-0.011 0.001-0.018 0.001-0.121 0-0.224-0.081-0.257-0.191l-0.001-0.002-0.069-0.351c-0.096 0.089-0.186 0.172-0.282 0.248-0.092 0.070-0.195 0.136-0.304 0.194l-0.012 0.006c-0.099 0.045-0.218 0.087-0.341 0.12l-0.017 0.004c-0.119 0.026-0.255 0.041-0.395 0.041-0.006 0-0.013-0-0.019-0h0.001c-0.010 0-0.022 0-0.034 0-0.217 0-0.423-0.046-0.609-0.128l0.010 0.004c-0.187-0.077-0.345-0.194-0.466-0.342l-0.002-0.002c-0.129-0.148-0.228-0.325-0.286-0.52l-0.003-0.010c-0.061-0.2-0.096-0.43-0.096-0.668 0-0.007 0-0.014 0-0.021v0.001-2.8z"></path>
<path fill="#fff" style="fill: var(--color1, #fff)" d="M45.65 30.624c-0.016 0.001-0.034 0.001-0.053 0.001-0.325 0-0.618-0.135-0.827-0.352l-0-0c-0.194-0.218-0.312-0.506-0.312-0.822 0-0.026 0.001-0.051 0.002-0.076l-0 0.003v-2.442h-0.427c-0.058-0-0.111-0.021-0.152-0.055l0 0c-0.039-0.041-0.062-0.096-0.062-0.156 0-0.006 0-0.011 0.001-0.016l-0 0.001v-0.42l0.688-0.117 0.213-1.204c0.011-0.054 0.041-0.099 0.082-0.13l0.001-0c0.038-0.030 0.087-0.049 0.141-0.049 0.006 0 0.012 0 0.018 0.001l-0.001-0h0.55v1.376h1.163v0.757h-1.149v2.394c-0.001 0.009-0.001 0.019-0.001 0.029 0 0.112 0.039 0.215 0.105 0.295l-0.001-0.001c0.065 0.072 0.158 0.117 0.262 0.117 0.005 0 0.009-0 0.014-0l-0.001 0c0.025 0.005 0.053 0.008 0.083 0.008s0.058-0.003 0.085-0.009l-0.003 0 0.117-0.048 0.089-0.048c0.020-0.017 0.047-0.028 0.076-0.028s0.055 0.011 0.076 0.028l-0-0c0.024 0.020 0.044 0.042 0.061 0.068l0.001 0.001 0.323 0.516c-0.152 0.125-0.331 0.226-0.525 0.292l-0.012 0.004c-0.174 0.053-0.373 0.083-0.58 0.083-0.016 0-0.033-0-0.049-0.001l0.002 0z"></path>
<path fill="#fff" style="fill: var(--color1, #fff)" d="M49.104 31.773c-0.027 0.067-0.070 0.122-0.123 0.165l-0.001 0.001c-0.057 0.040-0.128 0.063-0.205 0.063-0.010 0-0.020-0-0.030-0.001l0.001 0h-0.791l0.826-1.768-1.782-4.087h0.929c0.005-0 0.010-0 0.016-0 0.070 0 0.134 0.023 0.185 0.063l-0.001-0.001c0.041 0.039 0.075 0.084 0.102 0.135l0.001 0.003 0.943 2.291 0.083 0.234c0.019 0.062 0.038 0.143 0.053 0.226l0.002 0.015c0-0.083 0.048-0.165 0.076-0.241s0.062-0.158 0.089-0.241l0.888-2.284c0.028-0.058 0.067-0.107 0.116-0.144l0.001-0.001c0.049-0.034 0.11-0.055 0.176-0.055 0.001 0 0.002 0 0.003 0h0.853z"></path>
<path fill="#fff" style="fill: var(--color1, #fff)" d="M56.074 24.26c0.009-0 0.019-0 0.029-0 0.237 0 0.463 0.043 0.672 0.122l-0.013-0.004c0.198 0.078 0.369 0.182 0.518 0.311l-0.002-0.002c0.133 0.126 0.243 0.274 0.326 0.438l0.004 0.009c0.078 0.15 0.129 0.325 0.144 0.511l0 0.005-0.688 0.138h-0.055c-0.001 0-0.003 0-0.005 0-0.047 0-0.091-0.015-0.127-0.042l0.001 0c-0.042-0.032-0.075-0.074-0.096-0.122l-0.001-0.002c-0.024-0.081-0.057-0.152-0.098-0.217l0.002 0.003c-0.040-0.069-0.088-0.128-0.144-0.178l-0.001-0.001c-0.059-0.049-0.127-0.088-0.202-0.115l-0.005-0.002c-0.073-0.031-0.157-0.049-0.246-0.049-0.008 0-0.016 0-0.024 0l0.001-0c-0.004-0-0.010-0-0.015-0-0.109 0-0.213 0.023-0.306 0.064l0.005-0.002c-0.094 0.039-0.175 0.095-0.24 0.165l-0 0c-0.063 0.070-0.115 0.152-0.15 0.242l-0.002 0.005c-0.034 0.088-0.054 0.189-0.055 0.295v0c-0.005 0.037-0.008 0.080-0.008 0.124s0.003 0.087 0.008 0.129l-0.001-0.005c0.022 0.091 0.052 0.172 0.092 0.246l-0.003-0.006c0.046 0.094 0.099 0.176 0.16 0.25l-0.002-0.002c0.075 0.102 0.154 0.192 0.24 0.274l0.001 0.001 1.651 1.72c0.088-0.163 0.165-0.352 0.222-0.551l0.005-0.020c0.053-0.178 0.092-0.386 0.109-0.601l0.001-0.012c0.003-0.064 0.029-0.122 0.069-0.165l-0 0c0.038-0.034 0.088-0.055 0.143-0.055 0.003 0 0.006 0 0.009 0h0.688c0 0.005 0 0.011 0 0.016 0 0.38-0.060 0.746-0.172 1.089l0.007-0.025c-0.109 0.364-0.264 0.682-0.462 0.968l0.007-0.011 1.307 1.376h-1.177c-0.018 0.003-0.038 0.005-0.058 0.005s-0.041-0.002-0.061-0.005l0.002 0c-0.042-0.017-0.078-0.037-0.111-0.063l0.001 0.001c-0.038-0.029-0.072-0.061-0.103-0.096l-0.001-0.001-0.433-0.447c-0.262 0.216-0.564 0.395-0.893 0.522l-0.022 0.008c-0.319 0.118-0.688 0.186-1.072 0.186-0.010 0-0.020-0-0.030-0h0.002c-0.247-0.002-0.484-0.047-0.702-0.128l0.014 0.005c-0.481-0.166-0.861-0.517-1.062-0.966l-0.005-0.011c-0.104-0.217-0.165-0.472-0.165-0.742 0-0.197 0.033-0.387 0.093-0.564l-0.004 0.012c0.072-0.184 0.162-0.343 0.272-0.486l-0.003 0.005c0.115-0.154 0.244-0.287 0.388-0.403l0.004-0.003c0.148-0.111 0.315-0.214 0.491-0.301l0.018-0.008c-0.132-0.182-0.246-0.391-0.331-0.614l-0.006-0.019c-0.065-0.182-0.103-0.393-0.103-0.612v-0c0-0.221 0.043-0.431 0.121-0.624l-0.004 0.011c0.084-0.196 0.2-0.363 0.344-0.502l0-0c0.155-0.147 0.341-0.264 0.546-0.34l0.011-0.004c0.207-0.083 0.447-0.131 0.699-0.131 0.013 0 0.026 0 0.040 0l-0.002-0zM54.581 28.759c-0 0.004-0 0.009-0 0.014 0 0.149 0.030 0.291 0.085 0.42l-0.003-0.007c0.050 0.125 0.125 0.231 0.219 0.316l0.001 0.001c0.093 0.086 0.202 0.156 0.323 0.204l0.007 0.002c0.113 0.044 0.243 0.069 0.38 0.069 0.007 0 0.014-0 0.020-0h-0.001c0.005 0 0.012 0 0.018 0 0.24 0 0.47-0.043 0.683-0.121l-0.014 0.004c0.219-0.086 0.407-0.197 0.575-0.333l-0.004 0.003-1.638-1.679c-0.204 0.127-0.37 0.296-0.492 0.496l-0.004 0.007c-0.1 0.167-0.158 0.369-0.158 0.584 0 0.008 0 0.015 0 0.022l-0-0.001z"></path>
<path fill="#fff" style="fill: var(--color1, #fff)" d="M61.083 24.329h0.977c0.002-0 0.005-0 0.007-0 0.090 0 0.173 0.028 0.242 0.077l-0.001-0.001c0.066 0.043 0.115 0.108 0.137 0.183l0.001 0.002 1.060 3.729c0 0.089 0.048 0.193 0.069 0.296l0.062 0.344c0-0.117 0.048-0.234 0.076-0.344 0.030-0.122 0.061-0.22 0.096-0.317l-0.007 0.021 1.225-3.729c0.029-0.073 0.076-0.134 0.136-0.178l0.001-0.001c0.062-0.052 0.142-0.083 0.229-0.083 0.007 0 0.013 0 0.019 0.001l-0.001-0h0.337c0.005-0 0.010-0 0.016-0 0.087 0 0.168 0.029 0.233 0.077l-0.001-0.001c0.066 0.043 0.115 0.108 0.137 0.183l0.001 0.002 1.218 3.729c0.056 0.161 0.113 0.366 0.159 0.576l0.007 0.037c0-0.117 0.034-0.22 0.062-0.323l0.062-0.289 1.060-3.729c0.025-0.075 0.074-0.137 0.136-0.178l0.001-0.001c0.065-0.052 0.148-0.083 0.238-0.083 0.003 0 0.006 0 0.010 0h0.908l-1.933 6.192h-1.046l-1.376-4.252c0-0.055 0-0.117-0.055-0.179s0-0.131-0.048-0.2c0 0.069-0.041 0.138-0.055 0.2s-0.041 0.124-0.055 0.179l-1.376 4.252h-1.032z"></path>
<path fill="#fff" style="fill: var(--color1, #fff)" d="M72.243 26.069c0.004-0 0.008-0 0.012-0 0.273 0 0.533 0.050 0.774 0.143l-0.015-0.005c0.237 0.086 0.44 0.217 0.605 0.385l0 0c0.168 0.176 0.301 0.387 0.388 0.62l0.004 0.013c0.092 0.24 0.145 0.517 0.145 0.807 0 0.014-0 0.028-0 0.042l0-0.002c0.002 0.030 0.004 0.065 0.004 0.1s-0.001 0.070-0.004 0.104l0-0.005c-0.005 0.046-0.017 0.088-0.035 0.126l0.001-0.002c-0.018 0.030-0.044 0.053-0.075 0.068l-0.001 0c-0.019 0.004-0.040 0.006-0.062 0.006s-0.043-0.002-0.064-0.006l0.002 0h-2.752c0.002 0.381 0.139 0.729 0.367 1l-0.002-0.002c0.205 0.197 0.484 0.318 0.791 0.318 0.020 0 0.039-0 0.058-0.001l-0.003 0c0.009 0 0.019 0 0.030 0 0.149 0 0.293-0.023 0.428-0.065l-0.010 0.003c0.126-0.039 0.233-0.084 0.335-0.136l-0.012 0.006 0.248-0.131c0.059-0.038 0.13-0.061 0.206-0.062h0c0.016-0.005 0.035-0.008 0.055-0.008s0.039 0.003 0.056 0.009l-0.001-0c0.034 0.015 0.062 0.039 0.082 0.068l0 0.001 0.31 0.385c-0.112 0.136-0.241 0.252-0.386 0.347l-0.007 0.004c-0.132 0.081-0.284 0.156-0.443 0.214l-0.018 0.006c-0.14 0.054-0.305 0.097-0.475 0.122l-0.013 0.002c-0.072 0.005-0.156 0.008-0.241 0.008s-0.169-0.003-0.252-0.008l0.011 0.001c-0.003 0-0.007 0-0.011 0-0.303 0-0.592-0.058-0.858-0.164l0.016 0.006c-0.271-0.099-0.501-0.251-0.687-0.447l-0.001-0.001c-0.199-0.206-0.356-0.454-0.456-0.729l-0.005-0.014c-0.109-0.285-0.173-0.615-0.173-0.96 0-0.023 0-0.046 0.001-0.069l-0 0.003c-0-0.007-0-0.015-0-0.023 0-0.296 0.056-0.579 0.157-0.839l-0.005 0.016c0.187-0.527 0.578-0.942 1.074-1.158l0.013-0.005c0.196-0.065 0.422-0.103 0.657-0.103 0.084 0 0.166 0.005 0.248 0.014l-0.010-0.001zM72.243 26.833c-0.016-0.001-0.034-0.001-0.052-0.001-0.261 0-0.499 0.1-0.678 0.263l0.001-0.001c-0.179 0.2-0.3 0.455-0.336 0.736l-0.001 0.007h2.002c0-0.137-0.020-0.27-0.058-0.395l0.002 0.010c-0.039-0.124-0.098-0.232-0.173-0.325l0.001 0.002c-0.082-0.090-0.18-0.164-0.29-0.218l-0.006-0.002c-0.11-0.045-0.237-0.072-0.37-0.076l-0.001-0z"></path>
<path fill="#fff" style="fill: var(--color1, #fff)" d="M76.171 24.157v6.399h-1.066v-6.399z"></path>
<path fill="#fff" style="fill: var(--color1, #fff)" d="M78.504 24.157v6.399h-1.060v-6.399z"></path>
<path fill="#fff" style="fill: var(--color1, #fff)" d="M79.708 30.555v-4.41h0.647c0.005-0 0.011-0.001 0.018-0.001 0.121 0 0.224 0.081 0.257 0.191l0.001 0.002 0.069 0.351c0.087-0.086 0.179-0.167 0.275-0.242l0.007-0.005c0.092-0.071 0.196-0.136 0.306-0.188l0.010-0.004c0.102-0.051 0.221-0.096 0.345-0.128l0.013-0.003c0.119-0.026 0.255-0.041 0.395-0.041 0.006 0 0.013 0 0.019 0h-0.001c0.009-0 0.019-0 0.030-0 0.22 0 0.43 0.046 0.62 0.128l-0.010-0.004c0.185 0.082 0.341 0.198 0.466 0.342l0.001 0.002c0.124 0.149 0.22 0.326 0.279 0.519l0.003 0.011c0.061 0.191 0.097 0.41 0.097 0.638 0 0.018-0 0.035-0.001 0.053l0-0.003v2.807h-1.060v-2.821c0.001-0.020 0.002-0.043 0.002-0.066 0-0.212-0.071-0.407-0.19-0.563l0.002 0.002c-0.126-0.141-0.309-0.229-0.513-0.229-0.018 0-0.036 0.001-0.054 0.002l0.002-0c-0.003-0-0.006-0-0.009-0-0.185 0-0.36 0.046-0.513 0.127l0.006-0.003c-0.177 0.096-0.328 0.211-0.461 0.344l-0 0v3.192z"></path>
<path fill="#fff" style="fill: var(--color1, #fff)" d="M86.43 26.069c0.004-0 0.008-0 0.012-0 0.27 0 0.528 0.050 0.766 0.143l-0.014-0.005c0.238 0.084 0.441 0.216 0.605 0.385l0 0c0.172 0.175 0.308 0.386 0.395 0.621l0.004 0.012c0.092 0.24 0.145 0.517 0.145 0.807 0 0.014-0 0.028-0 0.042l0-0.002c0.002 0.030 0.004 0.065 0.004 0.1s-0.001 0.070-0.004 0.104l0-0.005c-0.003 0.046-0.018 0.089-0.042 0.125l0.001-0.001c-0.014 0.033-0.041 0.058-0.075 0.069l-0.001 0c-0.018 0.004-0.038 0.006-0.058 0.006s-0.041-0.002-0.060-0.007l0.002 0h-2.752c0.002 0.381 0.139 0.729 0.367 1l-0.002-0.002c0.205 0.197 0.484 0.318 0.791 0.318 0.020 0 0.039-0 0.058-0.001l-0.003 0c0.009 0 0.019 0 0.030 0 0.149 0 0.293-0.023 0.428-0.065l-0.010 0.003c0.141-0.037 0.262-0.081 0.377-0.136l-0.013 0.005 0.248-0.131c0.059-0.038 0.13-0.061 0.206-0.062h0c0.078 0.001 0.148 0.038 0.192 0.096l0 0.001 0.31 0.385c-0.113 0.137-0.244 0.254-0.392 0.347l-0.007 0.004c-0.13 0.083-0.28 0.158-0.438 0.215l-0.016 0.005c-0.14 0.054-0.305 0.097-0.475 0.122l-0.013 0.002c-0.072 0.005-0.156 0.008-0.241 0.008s-0.169-0.003-0.252-0.008l0.011 0.001c-0.003 0-0.007 0-0.011 0-0.303 0-0.592-0.058-0.858-0.164l0.016 0.006c-0.271-0.099-0.501-0.251-0.687-0.447l-0.001-0.001c-0.199-0.206-0.356-0.454-0.456-0.729l-0.005-0.014c-0.109-0.285-0.173-0.615-0.173-0.96 0-0.023 0-0.046 0.001-0.069l-0 0.003c-0-0.007-0-0.015-0-0.023 0-0.296 0.056-0.579 0.157-0.839l-0.005 0.016c0.097-0.266 0.237-0.495 0.414-0.69l-0.002 0.002c0.192-0.195 0.42-0.353 0.674-0.463l0.014-0.005c0.219-0.080 0.472-0.126 0.736-0.126 0.036 0 0.073 0.001 0.108 0.003l-0.005-0zM86.43 26.833c-0.016-0.001-0.034-0.001-0.052-0.001-0.261 0-0.499 0.1-0.678 0.263l0.001-0.001c-0.181 0.199-0.303 0.454-0.337 0.737l-0.001 0.006h2.016c0-0.003 0-0.007 0-0.011 0-0.134-0.023-0.263-0.064-0.383l0.002 0.008c-0.033-0.125-0.090-0.233-0.166-0.325l0.001 0.001c-0.082-0.090-0.18-0.164-0.29-0.218l-0.006-0.002c-0.118-0.048-0.254-0.076-0.397-0.076-0.003 0-0.006 0-0.009 0h0z"></path>
<path fill="#fff" style="fill: var(--color1, #fff)" d="M91.824 26.998c-0.019 0.041-0.050 0.075-0.088 0.096l-0.001 0.001c-0.017 0.006-0.038 0.009-0.058 0.009s-0.041-0.003-0.060-0.009l0.001 0c-0.060-0.001-0.117-0.016-0.167-0.042l0.002 0.001-0.206-0.096c-0.072-0.034-0.158-0.067-0.248-0.093l-0.013-0.003c-0.101-0.026-0.216-0.041-0.335-0.041-0.006 0-0.011 0-0.017 0h0.001c-0.016-0.001-0.036-0.002-0.055-0.002-0.164 0-0.317 0.050-0.443 0.134l0.003-0.002c-0.113 0.075-0.186 0.201-0.186 0.345 0 0.002 0 0.004 0 0.006v-0c0 0.001 0 0.001 0 0.002 0 0.093 0.037 0.177 0.096 0.239l-0-0c0.069 0.065 0.148 0.121 0.235 0.163l0.006 0.002c0.099 0.049 0.215 0.093 0.336 0.127l0.015 0.003 0.392 0.131c0.163 0.055 0.295 0.108 0.424 0.169l-0.025-0.010c0.132 0.058 0.246 0.132 0.345 0.221l-0.001-0.001c0.103 0.090 0.187 0.2 0.245 0.324l0.003 0.006c0.057 0.123 0.090 0.266 0.090 0.417 0 0.013-0 0.026-0.001 0.039l0-0.002c0 0.007 0 0.016 0 0.024 0 0.202-0.041 0.395-0.114 0.57l0.004-0.010c-0.084 0.184-0.2 0.34-0.343 0.467l-0.001 0.001c-0.154 0.133-0.338 0.237-0.54 0.3l-0.011 0.003c-0.212 0.070-0.457 0.111-0.711 0.111-0.016 0-0.032-0-0.049-0l0.002 0c-0.001 0-0.002 0-0.004 0-0.157 0-0.31-0.015-0.458-0.044l0.015 0.002c-0.163-0.030-0.304-0.068-0.44-0.116l0.020 0.006c-0.142-0.054-0.262-0.112-0.377-0.179l0.012 0.007c-0.115-0.066-0.214-0.139-0.304-0.221l0.001 0.001 0.248-0.399c0.026-0.049 0.063-0.088 0.109-0.116l0.001-0.001c0.025-0.006 0.053-0.009 0.083-0.009s0.058 0.003 0.085 0.010l-0.002-0c0.002-0 0.003-0 0.005-0 0.067 0 0.13 0.021 0.182 0.056l-0.001-0.001 0.206 0.117c0.076 0.045 0.165 0.087 0.257 0.12l0.011 0.004c0.113 0.035 0.244 0.055 0.379 0.055 0.007 0 0.014-0 0.021-0h-0.001c0.009 0 0.019 0 0.029 0 0.108 0 0.211-0.018 0.308-0.051l-0.007 0.002c0.085-0.025 0.158-0.065 0.221-0.118l-0.001 0.001c0.058-0.044 0.103-0.102 0.13-0.169l0.001-0.003c0.026-0.058 0.041-0.126 0.041-0.198 0-0.001 0-0.001 0-0.002v0c0-0.002 0-0.005 0-0.008 0-0.095-0.037-0.182-0.097-0.247l0 0c-0.059-0.077-0.127-0.142-0.204-0.198l-0.003-0.002c-0.094-0.044-0.211-0.088-0.33-0.125l-0.021-0.005-0.399-0.124c-0.163-0.058-0.295-0.113-0.423-0.176l0.024 0.011c-0.135-0.063-0.25-0.141-0.352-0.235l0.001 0.001c-0.105-0.094-0.188-0.208-0.245-0.338l-0.002-0.006c-0.057-0.137-0.090-0.297-0.090-0.464 0-0.014 0-0.027 0.001-0.041l-0 0.002c-0-0.003-0-0.006-0-0.009 0-0.184 0.041-0.358 0.113-0.515l-0.003 0.008c0.071-0.17 0.176-0.313 0.308-0.425l0.002-0.001c0.148-0.125 0.322-0.225 0.511-0.292l0.012-0.004c0.2-0.070 0.431-0.11 0.671-0.11 0.006 0 0.012 0 0.018 0h-0.001c0.010-0 0.021-0 0.032-0 0.288 0 0.563 0.056 0.815 0.157l-0.015-0.005c0.24 0.096 0.446 0.231 0.62 0.4l-0.001-0z"></path>
<path fill="#fff" style="fill: var(--color1, #fff)" d="M95.587 26.998c-0.019 0.041-0.050 0.075-0.088 0.096l-0.001 0.001c-0.017 0.006-0.038 0.009-0.058 0.009s-0.041-0.003-0.060-0.009l0.001 0c-0.060-0.001-0.117-0.016-0.167-0.042l0.002 0.001-0.206-0.096c-0.075-0.035-0.164-0.068-0.256-0.093l-0.012-0.003c-0.098-0.026-0.21-0.042-0.325-0.042-0.009 0-0.018 0-0.027 0l0.001-0c-0.015-0.001-0.033-0.002-0.050-0.002-0.163 0-0.315 0.049-0.441 0.134l0.003-0.002c-0.113 0.075-0.186 0.201-0.186 0.345 0 0.002 0 0.004 0 0.006v-0c0 0.001 0 0.001 0 0.002 0 0.093 0.037 0.177 0.096 0.239l-0-0c0.068 0.067 0.148 0.123 0.236 0.163l0.005 0.002c0.099 0.049 0.215 0.093 0.336 0.127l0.015 0.003 0.392 0.131c0.163 0.055 0.295 0.108 0.424 0.169l-0.025-0.010c0.132 0.058 0.246 0.132 0.345 0.221l-0.001-0.001c0.103 0.090 0.187 0.2 0.245 0.324l0.003 0.006c0.057 0.123 0.090 0.266 0.090 0.417 0 0.013-0 0.026-0.001 0.039l0-0.002c0 0.009 0 0.019 0 0.029 0 0.201-0.043 0.392-0.121 0.565l0.004-0.009c-0.078 0.186-0.192 0.342-0.336 0.467l-0.002 0.001c-0.154 0.133-0.338 0.237-0.54 0.3l-0.011 0.003c-0.212 0.070-0.457 0.111-0.711 0.111-0.016 0-0.032-0-0.049-0l0.002 0c-0.001 0-0.002 0-0.004 0-0.157 0-0.31-0.015-0.458-0.044l0.015 0.002c-0.163-0.030-0.304-0.068-0.44-0.116l0.020 0.006c-0.142-0.054-0.262-0.112-0.377-0.179l0.012 0.007c-0.115-0.066-0.214-0.139-0.304-0.221l0.001 0.001 0.248-0.399c0.026-0.049 0.063-0.088 0.109-0.116l0.001-0.001c0.025-0.006 0.053-0.009 0.083-0.009s0.058 0.003 0.085 0.010l-0.002-0c0.002-0 0.003-0 0.005-0 0.067 0 0.13 0.021 0.182 0.056l-0.001-0.001 0.206 0.117c0.076 0.045 0.165 0.087 0.257 0.12l0.011 0.004c0.113 0.035 0.244 0.055 0.379 0.055 0.007 0 0.014-0 0.021-0h-0.001c0.010 0 0.022 0.001 0.033 0.001 0.104 0 0.204-0.018 0.296-0.051l-0.006 0.002c0.088-0.023 0.164-0.064 0.228-0.118l-0.001 0.001c0.058-0.044 0.103-0.102 0.13-0.169l0.001-0.003c0.026-0.058 0.041-0.126 0.041-0.198 0-0.001 0-0.001 0-0.002v0c0-0.002 0-0.005 0-0.008 0-0.095-0.037-0.182-0.097-0.247l0 0c-0.070-0.065-0.149-0.123-0.235-0.169l-0.006-0.003c-0.094-0.044-0.211-0.088-0.33-0.125l-0.021-0.005-0.399-0.124c-0.163-0.058-0.295-0.113-0.423-0.176l0.024 0.011c-0.135-0.063-0.25-0.141-0.352-0.235l0.001 0.001c-0.105-0.094-0.188-0.208-0.245-0.338l-0.002-0.006c-0.057-0.137-0.090-0.297-0.090-0.464 0-0.014 0-0.027 0.001-0.041l-0 0.002c0-0.001 0-0.002 0-0.003 0-0.185 0.038-0.362 0.106-0.522l-0.003 0.009c0.076-0.169 0.183-0.311 0.315-0.425l0.002-0.001c0.148-0.125 0.322-0.225 0.511-0.292l0.012-0.004c0.2-0.070 0.431-0.11 0.671-0.11 0.006 0 0.012 0 0.018 0h-0.001c0.010-0 0.021-0 0.032-0 0.288 0 0.563 0.056 0.815 0.157l-0.015-0.005c0.24 0.096 0.446 0.231 0.62 0.4l-0.001-0z"></path>
<path fill="#fff" style="fill: var(--color1, #fff)" d="M101.312 29.702c0.019 0 0.041 0.001 0.063 0.001 0.222 0 0.437-0.025 0.645-0.073l-0.019 0.004c0.214-0.053 0.4-0.119 0.577-0.201l-0.019 0.008v-1.135h-0.784c-0.003 0-0.007 0-0.011 0-0.062 0-0.119-0.024-0.162-0.062l0 0c-0.040-0.038-0.066-0.092-0.069-0.151v-0.654h2.064v2.518c-0.141 0.103-0.301 0.201-0.468 0.287l-0.020 0.009c-0.156 0.080-0.339 0.15-0.53 0.202l-0.020 0.005c-0.174 0.051-0.384 0.095-0.599 0.122l-0.020 0.002c-0.206 0.026-0.445 0.041-0.688 0.041h-0c-0.014 0-0.030 0-0.046 0-0.434 0-0.849-0.086-1.227-0.242l0.021 0.008c-0.388-0.166-0.718-0.398-0.989-0.687l-0.001-0.001c-0.288-0.278-0.521-0.612-0.681-0.985l-0.007-0.020c-0.148-0.367-0.234-0.792-0.234-1.237 0-0.015 0-0.030 0-0.045l-0 0.002c0-0.004-0-0.008-0-0.013 0-0.453 0.086-0.886 0.242-1.284l-0.008 0.024c0.291-0.774 0.891-1.374 1.646-1.659l0.019-0.006c0.389-0.149 0.839-0.235 1.309-0.235 0.024 0 0.047 0 0.071 0.001l-0.004-0c0.022-0.001 0.049-0.001 0.075-0.001 0.445 0 0.871 0.084 1.263 0.236l-0.024-0.008c0.366 0.147 0.681 0.347 0.952 0.594l-0.003-0.002-0.337 0.523c-0.052 0.094-0.149 0.156-0.261 0.158h-0c-0.080-0.002-0.154-0.027-0.215-0.070l0.001 0.001-0.296-0.151c-0.091-0.054-0.196-0.101-0.306-0.135l-0.010-0.003c-0.108-0.039-0.24-0.075-0.375-0.101l-0.017-0.003c-0.075-0.006-0.163-0.009-0.251-0.009s-0.176 0.003-0.263 0.010l0.012-0.001c-0.012-0-0.027-0-0.041-0-0.285 0-0.557 0.056-0.806 0.157l0.014-0.005c-0.25 0.104-0.461 0.256-0.632 0.446l-0.001 0.002c-0.175 0.192-0.314 0.421-0.402 0.674l-0.004 0.014c-0.092 0.26-0.145 0.56-0.145 0.873 0 0.012 0 0.025 0 0.037l-0-0.002c-0 0.016-0.001 0.035-0.001 0.055 0 0.323 0.056 0.633 0.158 0.921l-0.006-0.019c0.099 0.266 0.242 0.495 0.421 0.689l-0.001-0.001c0.179 0.186 0.394 0.335 0.634 0.436l0.013 0.005c0.223 0.088 0.481 0.138 0.752 0.138 0.019 0 0.037-0 0.056-0.001l-0.003 0z"></path>
<path fill="#fff" style="fill: var(--color1, #fff)" d="M105.591 26.145v2.807c-0.001 0.018-0.002 0.040-0.002 0.062 0 0.213 0.071 0.409 0.189 0.567l-0.002-0.002c0.126 0.137 0.306 0.223 0.507 0.223 0.020 0 0.040-0.001 0.060-0.003l-0.003 0c0.007 0 0.015 0 0.023 0 0.18 0 0.349-0.043 0.499-0.12l-0.006 0.003c0.174-0.094 0.324-0.206 0.454-0.337l0-0v-3.199h1.066v4.417h-0.688c-0.006 0.001-0.014 0.001-0.021 0.001-0.119 0-0.219-0.082-0.247-0.192l-0-0.002-0.076-0.351c-0.087 0.086-0.179 0.167-0.275 0.242l-0.007 0.005c-0.090 0.073-0.192 0.139-0.299 0.195l-0.010 0.005c-0.097 0.043-0.216 0.085-0.338 0.119l-0.019 0.005c-0.122 0.026-0.261 0.041-0.405 0.041-0.003 0-0.006 0-0.009-0h0c-0.009 0-0.019 0-0.030 0-0.22 0-0.43-0.046-0.62-0.128l0.010 0.004c-0.187-0.079-0.343-0.196-0.466-0.342l-0.002-0.002c-0.124-0.149-0.22-0.326-0.279-0.519l-0.003-0.011c-0.061-0.191-0.097-0.41-0.097-0.638 0-0.018 0-0.035 0.001-0.053l-0 0.003v-2.8z"></path>
<path fill="#fff" style="fill: var(--color1, #fff)" d="M110.806 24.851c-0.001 0.095-0.021 0.184-0.057 0.266l0.002-0.004c-0.040 0.080-0.091 0.148-0.151 0.206l-0 0c-0.060 0.060-0.13 0.108-0.209 0.143l-0.004 0.002c-0.079 0.035-0.171 0.055-0.268 0.055h-0c-0.095-0.001-0.184-0.021-0.266-0.057l0.004 0.002c-0.083-0.036-0.153-0.085-0.213-0.145l0 0c-0.060-0.057-0.109-0.126-0.143-0.202l-0.002-0.004c-0.034-0.077-0.054-0.167-0.055-0.261v-0c0-0.097 0.020-0.189 0.057-0.273l-0.002 0.004c0.071-0.161 0.197-0.287 0.353-0.356l0.004-0.002c0.077-0.034 0.167-0.054 0.261-0.055h0c0.097 0 0.189 0.020 0.273 0.057l-0.004-0.002c0.083 0.036 0.153 0.085 0.213 0.145l-0-0c0.060 0.061 0.111 0.131 0.149 0.209l0.002 0.005c0.035 0.079 0.055 0.171 0.055 0.268v0zM110.648 26.145v4.417h-1.066v-4.417z"></path>
<path fill="#fff" style="fill: var(--color1, #fff)" d="M114.955 30.555c-0.006 0.001-0.014 0.001-0.021 0.001-0.119 0-0.219-0.082-0.247-0.192l-0-0.002-0.089-0.427c-0.088 0.103-0.183 0.195-0.285 0.279l-0.004 0.003c-0.094 0.079-0.2 0.15-0.314 0.209l-0.010 0.005c-0.107 0.059-0.231 0.107-0.362 0.136l-0.009 0.002c-0.13 0.034-0.279 0.055-0.433 0.055h-0c-0.006 0-0.012 0-0.019 0-0.243 0-0.474-0.056-0.679-0.156l0.009 0.004c-0.207-0.109-0.38-0.257-0.513-0.436l-0.003-0.004c-0.145-0.196-0.26-0.425-0.333-0.673l-0.004-0.015c-0.074-0.277-0.117-0.595-0.117-0.923 0-0.014 0-0.028 0-0.042l-0 0.002c-0-0.011-0-0.025-0-0.038 0-0.313 0.048-0.614 0.137-0.898l-0.006 0.021c0.090-0.279 0.221-0.522 0.389-0.734l-0.004 0.005c0.161-0.2 0.361-0.363 0.588-0.477l0.010-0.005c0.224-0.113 0.488-0.179 0.767-0.179 0.006 0 0.012 0 0.018 0h-0.001c0.011-0 0.023-0 0.036-0 0.215 0 0.42 0.043 0.607 0.121l-0.010-0.004c0.18 0.085 0.334 0.191 0.469 0.317l-0.001-0.001v-2.353h1.066v6.399zM113.524 29.778c0.010 0 0.022 0.001 0.034 0.001 0.195 0 0.378-0.051 0.536-0.141l-0.005 0.003c0.174-0.104 0.32-0.235 0.438-0.389l0.003-0.004v-1.982c-0.103-0.132-0.234-0.237-0.386-0.307l-0.006-0.003c-0.131-0.057-0.284-0.090-0.445-0.090-0.006 0-0.011 0-0.017 0h0.001c-0.006-0-0.013-0-0.020-0-0.15 0-0.292 0.033-0.419 0.092l0.006-0.003c-0.134 0.064-0.246 0.157-0.329 0.273l-0.002 0.003c-0.098 0.13-0.172 0.285-0.212 0.453l-0.002 0.008c-0.044 0.185-0.070 0.397-0.070 0.616 0 0.025 0 0.051 0.001 0.076l-0-0.004c-0.001 0.022-0.001 0.048-0.001 0.074 0 0.217 0.023 0.43 0.066 0.634l-0.004-0.020c0.031 0.164 0.094 0.31 0.181 0.437l-0.002-0.004c0.068 0.108 0.164 0.193 0.278 0.246l0.004 0.002c0.075 0.022 0.162 0.035 0.252 0.035 0.042 0 0.084-0.003 0.124-0.008l-0.005 0.001z"></path>
<path fill="#fff" style="fill: var(--color1, #fff)" d="M118.581 26.069c0.005-0 0.011-0 0.017-0 0.271 0 0.53 0.050 0.768 0.143l-0.015-0.005c0.237 0.086 0.44 0.217 0.605 0.385l0 0c0.17 0.175 0.304 0.386 0.388 0.621l0.004 0.012c0.092 0.24 0.145 0.517 0.145 0.807 0 0.014-0 0.028-0 0.042l0-0.002c0.004 0.030 0.006 0.065 0.006 0.1s-0.002 0.070-0.007 0.104l0-0.004c-0.005 0.046-0.017 0.088-0.035 0.126l0.001-0.002c-0.018 0.030-0.044 0.053-0.075 0.068l-0.001 0c-0.019 0.004-0.040 0.006-0.062 0.006s-0.043-0.002-0.064-0.006l0.002 0h-2.752c-0 0.006-0 0.013-0 0.020 0 0.375 0.138 0.717 0.366 0.98l-0.002-0.002c0.203 0.197 0.48 0.318 0.785 0.318 0.019 0 0.038-0 0.057-0.001l-0.003 0c0.011 0 0.024 0 0.037 0 0.146 0 0.287-0.023 0.42-0.065l-0.010 0.003c0.131-0.042 0.24-0.086 0.345-0.137l-0.015 0.007 0.241-0.131c0.059-0.036 0.13-0.058 0.205-0.062l0.001-0c0.016-0.005 0.035-0.008 0.055-0.008s0.039 0.003 0.056 0.009l-0.001-0c0.034 0.015 0.062 0.039 0.082 0.068l0 0.001 0.31 0.385c-0.112 0.136-0.241 0.252-0.386 0.347l-0.007 0.004c-0.132 0.083-0.284 0.158-0.445 0.215l-0.016 0.005c-0.14 0.054-0.305 0.097-0.475 0.122l-0.013 0.002c-0.071 0.005-0.154 0.007-0.237 0.007s-0.166-0.003-0.249-0.008l0.011 0.001c-0.005 0-0.010 0-0.015 0-0.304 0-0.594-0.058-0.86-0.164l0.016 0.006c-0.27-0.1-0.5-0.253-0.688-0.447l-0.001-0c-0.198-0.207-0.354-0.454-0.456-0.728l-0.005-0.015c-0.105-0.288-0.166-0.621-0.166-0.968 0-0.020 0-0.040 0.001-0.060l-0 0.003c-0-0.005-0-0.010-0-0.016 0-0.298 0.053-0.583 0.15-0.847l-0.005 0.017c0.097-0.267 0.24-0.496 0.421-0.689l-0.001 0.001c0.191-0.196 0.419-0.354 0.674-0.463l0.013-0.005c0.2-0.068 0.43-0.107 0.669-0.107 0.074 0 0.148 0.004 0.22 0.011l-0.009-0.001zM118.581 26.833c-0.007-0-0.015-0-0.023-0-0.257 0-0.492 0.1-0.666 0.262l0.001-0.001c-0.184 0.197-0.306 0.454-0.337 0.737l-0.001 0.006h1.995c0-0.137-0.020-0.27-0.058-0.395l0.002 0.010c-0.039-0.124-0.098-0.232-0.173-0.325l0.001 0.002c-0.081-0.092-0.179-0.166-0.29-0.218l-0.005-0.002c-0.118-0.048-0.255-0.076-0.398-0.076-0.010 0-0.020 0-0.030 0l0.001-0z"></path>
</symbol>
<symbol id="icon-menu3" viewBox="0 0 44 32">
<path d="M0 6h28v6h-28v-6zM0 14h28v6h-28v-6zM0 22h28v6h-28v-6z"></path>
<path d="M31 14l6 6 6-6z"></path>
</symbol>
<symbol id="icon-archive" viewBox="0 0 20 20">
<path d="M13.981 2h-7.963c0 0-0.996 0-0.996 1h9.955c0-1-0.996-1-0.996-1zM16.968 5c0-1-0.995-1-0.995-1h-11.946c0 0-0.995 0-0.995 1v1h13.936v-1zM18.958 6c-0.588-0.592-0.588-0.592-0.588-0.592v1.592h-16.74v-1.592c0 0 0 0-0.589 0.592s-1.011 0.75-0.774 2c0.236 1.246 1.379 8.076 1.549 9 0.186 1.014 1.217 1 1.217 1h13.936c0 0 1.030 0.014 1.217-1 0.17-0.924 1.312-7.754 1.549-9 0.235-1.25-0.187-1.408-0.777-2zM14 11.997c0 0.554-0.449 1.003-1.003 1.003h-5.994c-0.554 0-1.003-0.449-1.003-1.003v-1.997h1v2h6v-2h1v1.997z"></path>
</symbol>
<symbol id="icon-drop" viewBox="0 0 20 20">
<path d="M10.203 0.561c-0.027-0.215-0.38-0.215-0.406 0-0.883 7.107-5.398 8.572-5.398 13.512 0 3.053 2.564 5.527 5.601 5.527s5.6-2.475 5.6-5.527c0-4.94-4.514-6.405-5.397-13.512zM9.35 8.418c-0.059 0.219-0.123 0.444-0.189 0.678-0.401 1.424-0.856 3.039-0.856 4.906 0 1.012-0.598 1.371-1.156 1.371-0.639 0-1.156-0.523-1.156-1.166 0-2.207 1.062-3.649 2-4.92 0.295-0.398 0.572-0.775 0.797-1.15 0.103-0.172 0.38-0.164 0.506 0.006 0.059 0.080 0.079 0.182 0.054 0.275z"></path>
</symbol>
<symbol id="icon-slideshare" viewBox="0 0 20 20">
<path d="M13 7.080c1.381 0 2.5-1.119 2.5-2.5s-1.119-2.5-2.5-2.5-2.5 1.119-2.5 2.5 1.12 2.5 2.5 2.5zM18.845 5.943c-3.58 2.555-5.229 2.108-6.845 2.057-1.118-0.057-1.5 0.298-1.5 1.080l0.001 6c0 5 8.421 3.43 5.165-4.949 1.671-0.959 3.076-2.434 3.876-3.412 0.411-0.608-0.028-1.245-0.697-0.776zM7 2.080c-1.381 0-2.5 1.119-2.5 2.5s1.119 2.5 2.5 2.5 2.5-1.119 2.5-2.5-1.12-2.5-2.5-2.5zM8 8c-1.616 0.051-3.265 0.498-6.845-2.057-0.669-0.469-1.108 0.168-0.697 0.775 0.8 0.979 2.205 2.453 3.876 3.412-3.256 8.379 5.165 9.949 5.165 4.949l0.001-6c0-0.781-0.382-1.136-1.5-1.079z"></path>
</symbol>
<symbol id="icon-briefcase" viewBox="0 0 32 32">
<path d="M30 8h-8v-2c0-1.1-0.9-2-2-2h-8c-1.1 0-2 0.9-2 2v2h-8c-1.1 0-2 0.9-2 2v18c0 1.1 0.9 2 2 2h28c1.1 0 2-0.9 2-2v-18c0-1.1-0.9-2-2-2zM12 6.004c0.001-0.001 0.002-0.003 0.004-0.004h7.993c0.001 0.001 0.003 0.002 0.004 0.004v1.996h-8v-1.996zM30 16h-4v3c0 0.55-0.45 1-1 1h-2c-0.55 0-1-0.45-1-1v-3h-12v3c0 0.55-0.45 1-1 1h-2c-0.55 0-1-0.45-1-1v-3h-4v-2h28v2z"></path>
</symbol>
</defs>
</svg>